<svg xmlns="http://www.w3.org/2000/svg" xmlns:xlink="http://www.w3.org/1999/xlink" width="500" zoomAndPan="magnify" viewBox="0 0 375 374.999991" height="500" preserveAspectRatio="xMidYMid meet" version="1.0"><defs><clipPath id="340cbecb8a"><path d="M 0 12.65625 L 375 12.65625 L 375 362 L 0 362 Z M 0 12.65625 " clip-rule="nonzero"/></clipPath></defs><g clip-path="url(#340cbecb8a)"><path fill="#5271ff" d="M 321.519531 120.9375 C 309.847656 116.625 304.699219 105.804688 293.105469 101.410156 C 294.023438 96.890625 296.132812 94.523438 289.5625 94.308594 C 289.347656 78.664062 292.242188 69.53125 287.789062 57.03125 C 293.585938 64.417969 296.835938 38.605469 289.5625 28.625 C 287.234375 30.410156 269.613281 32.300781 270.035156 32.175781 C 271.457031 31.238281 272.914062 30.328125 275.363281 30.402344 C 257.105469 23.8125 270.449219 58.777344 262.929688 65.90625 C 241.375 56.609375 234.007812 38.589844 209.675781 32.175781 C 209.871094 25.890625 215.542969 35.949219 215.003906 30.402344 C 210.09375 22.886719 200.59375 19.964844 195.476562 12.648438 C 191.332031 12.648438 187.191406 12.648438 183.050781 12.648438 C 121.707031 68.480469 60.394531 116.285156 0.199219 170.644531 C 0.199219 173.605469 0.199219 176.5625 0.199219 179.523438 C 16.160156 198.332031 34.054688 168.902344 44.578125 167.097656 C 43.742188 220.292969 45.585938 272.621094 46.355469 321.542969 C 46.5625 335.011719 42.746094 349.339844 51.679688 360.589844 C 128.882812 360.753906 252.230469 362.375 330.394531 358.824219 C 331.097656 309.417969 329.914062 224.238281 330.394531 158.21875 C 341.667969 153.367188 356.601562 190.941406 374.777344 179.523438 C 366.085938 150.933594 334.425781 145.320312 321.519531 120.9375 Z M 193.699219 337.527344 C 190.304688 342.839844 188.613281 338.820312 183.050781 341.070312 C 186.570312 336.972656 182.597656 339.09375 181.273438 335.746094 C 179.617188 337.046875 178.582031 338.976562 177.722656 341.070312 C 179.46875 334.820312 165.171875 337.691406 161.746094 337.527344 C 155.40625 315.027344 159.761719 283.757812 156.421875 262.964844 C 177.9375 259.445312 198.457031 256.25 225.65625 257.632812 C 226.3125 293.582031 227.230469 312.953125 227.421875 344.628906 C 211.964844 343.066406 198.582031 345.921875 193.699219 337.527344 Z M 312.640625 232.789062 C 311.730469 240.289062 308.832031 259.769531 314.417969 271.835938 C 313.359375 278.476562 308.203125 281.015625 305.542969 286.042969 C 307.027344 292.242188 311.472656 295.492188 310.867188 303.789062 C 308.9375 303.347656 309.660156 300.253906 307.316406 300.246094 C 312.207031 310.253906 304.558594 314.78125 312.648438 323.316406 C 305.570312 322.164062 307.5625 330.070312 307.316406 335.75 C 291.613281 343.992188 266.765625 330.085938 250.507812 344.628906 C 239.480469 305.320312 262.375 256.914062 234.53125 234.5625 C 202.191406 239.613281 169.503906 233.726562 140.441406 238.105469 C 126.441406 262.773438 135.160156 306.683594 135.117188 339.296875 C 110.691406 339.089844 91.816406 343.199219 67.65625 339.296875 C 66.6875 263.367188 64.839844 210.796875 64.105469 140.46875 C 108.007812 108.625 148.328125 73.199219 188.375 37.503906 C 232.195312 71.792969 275.09375 107.003906 316.191406 144.015625 C 312.082031 172.378906 316.03125 204.820312 312.640625 232.789062 Z M 312.640625 232.789062 " fill-opacity="1" fill-rule="evenodd"/></g></svg>